<?xml version="1.0" encoding="UTF-8" standalone="no"?>
<!-- Created with Inkscape (http://www.inkscape.org/) -->

<svg
   xmlns:dc="http://purl.org/dc/elements/1.1/"
   xmlns:cc="http://creativecommons.org/ns#"
   xmlns:rdf="http://www.w3.org/1999/02/22-rdf-syntax-ns#"
   xmlns:svg="http://www.w3.org/2000/svg"
   xmlns="http://www.w3.org/2000/svg"
   xmlns:xlink="http://www.w3.org/1999/xlink"
   xmlns:sodipodi="http://sodipodi.sourceforge.net/DTD/sodipodi-0.dtd"
   xmlns:inkscape="http://www.inkscape.org/namespaces/inkscape"
   width="744.09448819"
   height="1052.3622047"
   id="svg2"
   version="1.1"
   inkscape:version="0.48.2 r9819"
   sodipodi:docname="New document 1">
  <defs
     id="defs4" />
  <sodipodi:namedview
     id="base"
     pagecolor="#ffffff"
     bordercolor="#666666"
     borderopacity="1.0"
     inkscape:pageopacity="0.0"
     inkscape:pageshadow="2"
     inkscape:zoom="1.979899"
     inkscape:cx="362.2494"
     inkscape:cy="265.30818"
     inkscape:document-units="px"
     inkscape:current-layer="layer1"
     showgrid="true"
     inkscape:window-width="1235"
     inkscape:window-height="767"
     inkscape:window-x="2314"
     inkscape:window-y="132"
     inkscape:window-maximized="0">
    <inkscape:grid
       type="xygrid"
       id="grid2985"
       empspacing="5"
       visible="false"
       enabled="false"
       snapvisiblegridlinesonly="true" />
  </sodipodi:namedview>
  <metadata
     id="metadata7">
    <rdf:RDF>
      <cc:Work
         rdf:about="">
        <dc:format>image/svg+xml</dc:format>
        <dc:type
           rdf:resource="http://purl.org/dc/dcmitype/StillImage" />
        <dc:title></dc:title>
      </cc:Work>
    </rdf:RDF>
  </metadata>
  <g
     inkscape:label="Layer 1"
     inkscape:groupmode="layer"
     id="layer1">
    <path
       sodipodi:type="arc"
       style="fill:#ff1b00;fill-opacity:1;stroke:#ff1000;stroke-width:1;stroke-linecap:round;stroke-linejoin:round;stroke-miterlimit:4;stroke-opacity:1;stroke-dasharray:none;stroke-dashoffset:0"
       id="path2989"
       sodipodi:cx="345"
       sodipodi:cy="502.36218"
       sodipodi:rx="5"
       sodipodi:ry="5"
       d="m 350,502.36218 a 5,5 0 1 1 -10,0 5,5 0 1 1 10,0 z"
       transform="translate(15,-10)" />
    <path
       sodipodi:type="arc"
       style="fill:#ff1b00;fill-opacity:1;stroke:#ff1000;stroke-width:1;stroke-linecap:round;stroke-linejoin:round;stroke-miterlimit:4;stroke-opacity:1;stroke-dasharray:none;stroke-dashoffset:0"
       id="path2989-2"
       sodipodi:cx="345"
       sodipodi:cy="502.36218"
       sodipodi:rx="5"
       sodipodi:ry="5"
       d="m 350,502.36218 a 5,5 0 1 1 -10,0 5,5 0 1 1 10,0 z"
       transform="translate(55,-10)" />
    <path
       sodipodi:type="arc"
       style="fill:#ff1b00;fill-opacity:1;stroke:#ff1000;stroke-width:1;stroke-linecap:round;stroke-linejoin:round;stroke-miterlimit:4;stroke-opacity:1;stroke-dasharray:none;stroke-dashoffset:0"
       id="path2989-0"
       sodipodi:cx="345"
       sodipodi:cy="502.36218"
       sodipodi:rx="5"
       sodipodi:ry="5"
       d="m 350,502.36218 a 5,5 0 1 1 -10,0 5,5 0 1 1 10,0 z"
       transform="translate(95,-10)" />
    <path
       sodipodi:type="arc"
       style="fill:#ff1b00;fill-opacity:1;stroke:#ff1000;stroke-width:1;stroke-linecap:round;stroke-linejoin:round;stroke-miterlimit:4;stroke-opacity:1;stroke-dasharray:none;stroke-dashoffset:0"
       id="path2989-2-4"
       sodipodi:cx="345"
       sodipodi:cy="502.36218"
       sodipodi:rx="5"
       sodipodi:ry="5"
       d="m 350,502.36218 a 5,5 0 1 1 -10,0 5,5 0 1 1 10,0 z"
       transform="translate(135,-10)" />
    <path
       sodipodi:type="arc"
       style="fill:#ff1b00;fill-opacity:1;stroke:#ff1000;stroke-width:1;stroke-linecap:round;stroke-linejoin:round;stroke-miterlimit:4;stroke-opacity:1;stroke-dasharray:none;stroke-dashoffset:0"
       id="path2989-5"
       sodipodi:cx="345"
       sodipodi:cy="502.36218"
       sodipodi:rx="5"
       sodipodi:ry="5"
       d="m 350,502.36218 a 5,5 0 1 1 -10,0 5,5 0 1 1 10,0 z"
       transform="translate(175,-10)" />
    <path
       sodipodi:type="arc"
       style="fill:#ff1b00;fill-opacity:1;stroke:#ff1000;stroke-width:1;stroke-linecap:round;stroke-linejoin:round;stroke-miterlimit:4;stroke-opacity:1;stroke-dasharray:none;stroke-dashoffset:0"
       id="path2989-2-9"
       sodipodi:cx="345"
       sodipodi:cy="502.36218"
       sodipodi:rx="5"
       sodipodi:ry="5"
       d="m 350,502.36218 a 5,5 0 1 1 -10,0 5,5 0 1 1 10,0 z"
       transform="translate(215,-10)" />
    <path
       style="fill:none;stroke:#ff0000;stroke-width:2;stroke-linecap:butt;stroke-linejoin:miter;stroke-miterlimit:4;stroke-opacity:1;stroke-dasharray:none"
       d="m 320,492.36218 410,0"
       id="path3807"
       inkscape:connector-curvature="0"
       sodipodi:nodetypes="cc" />
    <path
       sodipodi:type="arc"
       style="fill:#ff1b00;fill-opacity:1;stroke:#ff1000;stroke-width:1;stroke-linecap:round;stroke-linejoin:round;stroke-miterlimit:4;stroke-opacity:1;stroke-dasharray:none;stroke-dashoffset:0"
       id="path2989-3"
       sodipodi:cx="345"
       sodipodi:cy="502.36218"
       sodipodi:rx="5"
       sodipodi:ry="5"
       d="m 350,502.36218 a 5,5 0 1 1 -10,0 5,5 0 1 1 10,0 z"
       transform="translate(255,-10)" />
    <path
       sodipodi:type="arc"
       style="fill:#ff1b00;fill-opacity:1;stroke:#ff1000;stroke-width:1;stroke-linecap:round;stroke-linejoin:round;stroke-miterlimit:4;stroke-opacity:1;stroke-dasharray:none;stroke-dashoffset:0"
       id="path2989-2-0"
       sodipodi:cx="345"
       sodipodi:cy="502.36218"
       sodipodi:rx="5"
       sodipodi:ry="5"
       d="m 350,502.36218 a 5,5 0 1 1 -10,0 5,5 0 1 1 10,0 z"
       transform="translate(295,-10)" />
    <path
       sodipodi:type="arc"
       style="fill:#ff1b00;fill-opacity:1;stroke:#ff1000;stroke-width:1;stroke-linecap:round;stroke-linejoin:round;stroke-miterlimit:4;stroke-opacity:1;stroke-dasharray:none;stroke-dashoffset:0"
       id="path2989-0-1"
       sodipodi:cx="345"
       sodipodi:cy="502.36218"
       sodipodi:rx="5"
       sodipodi:ry="5"
       d="m 350,502.36218 a 5,5 0 1 1 -10,0 5,5 0 1 1 10,0 z"
       transform="translate(335,-10)" />
    <path
       sodipodi:type="arc"
       style="fill:none;fill-opacity:1;stroke:#ff0000;stroke-width:2;stroke-linecap:round;stroke-linejoin:round;stroke-miterlimit:4;stroke-opacity:1;stroke-dasharray:none;stroke-dashoffset:0"
       id="path3833"
       sodipodi:cx="480"
       sodipodi:cy="492.36218"
       sodipodi:rx="10"
       sodipodi:ry="10"
       d="m 490,492.36218 a 10,10 0 1 1 -20,0 10,10 0 1 1 20,0 z" />
    <path
       sodipodi:type="arc"
       style="fill:none;stroke:#a03606;stroke-width:2;stroke-linecap:butt;stroke-linejoin:round;stroke-miterlimit:4;stroke-opacity:1;stroke-dasharray:none;stroke-dashoffset:0"
       id="path3835"
       sodipodi:cx="380"
       sodipodi:cy="792.36218"
       sodipodi:rx="120"
       sodipodi:ry="120"
       d="m 380.10294,672.36223 a 120,120 0 1 1 -0.29197,1e-4"
       sodipodi:start="4.7132468"
       sodipodi:end="10.993999"
       sodipodi:open="true" />
    <path
       transform="matrix(0.77863077,0,0,0.77863077,95.879137,141.86992)"
       sodipodi:type="arc"
       style="fill:#a52b05;fill-opacity:1;stroke:none"
       id="path3843-9"
       sodipodi:cx="322.14285"
       sodipodi:cy="687.36218"
       sodipodi:rx="3.75"
       sodipodi:ry="3.75"
       d="m 321.97239,683.61606 a 3.75,3.75 0 1 1 -0.17392,0.012"
       sodipodi:start="4.666917"
       sodipodi:end="10.903609"
       sodipodi:open="true" />
    <path
       transform="matrix(1.0829827,0,0,1.0829827,-32.205704,-66.30075)"
       sodipodi:type="arc"
       style="fill:none;stroke:#ff4f00;stroke-width:2;stroke-linecap:butt;stroke-linejoin:round;stroke-miterlimit:4;stroke-opacity:1;stroke-dasharray:none;stroke-dashoffset:0"
       id="path3835-2"
       sodipodi:cx="380"
       sodipodi:cy="792.36218"
       sodipodi:rx="120"
       sodipodi:ry="120"
       d="m 381.30788,672.36931 a 120,120 0 1 1 -3.08469,0.006"
       sodipodi:start="4.7232882"
       sodipodi:end="10.980767"
       sodipodi:open="true" />
    <use
       x="0"
       y="0"
       xlink:href="#path3843-9"
       id="use3902"
       transform="translate(-13.550402,4.5456865)"
       width="744.09448"
       height="1052.3622"
       style="fill:#a52b05;fill-opacity:1" />
    <use
       x="0"
       y="0"
       xlink:href="#use3902"
       id="use3904"
       transform="translate(-13.637059,6.0609153)"
       width="744.09448"
       height="1052.3622"
       style="fill:#a52b05;fill-opacity:1" />
    <use
       x="0"
       y="0"
       xlink:href="#use3904"
       id="use3906"
       transform="translate(-11.428571,7.8571429)"
       width="744.09448"
       height="1052.3622"
       style="fill:#a52b05;fill-opacity:1" />
    <use
       x="0"
       y="0"
       xlink:href="#path3843-9"
       id="use3908"
       transform="translate(14.642857,-3.2142857)"
       width="744.09448"
       height="1052.3622" />
    <use
       x="0"
       y="0"
       xlink:href="#use3908"
       id="use3910"
       transform="translate(18.571429,-1.4285714)"
       width="744.09448"
       height="1052.3622" />
    <path
       style="fill:#ff3c00;fill-opacity:1;stroke:none"
       d="m 368.98985,642.25014 10,25 10,-25 z"
       id="path3837"
       inkscape:connector-curvature="0" />
  </g>
</svg>
