<?xml version="1.0" encoding="UTF-8"?>
<svg xmlns="http://www.w3.org/2000/svg" xmlns:svg="http://www.w3.org/2000/svg" viewBox="0 0 64 64" version="0.48.2 r9819" width="64px" height="64px" id="svg5961">
  <defs id="defs5963"/>
  <format/>
  <type resource="http://purl.org/dc/dcmitype/StillImage"/>
  <title/>
  <g id="layer1" label="Layer 1" groupmode="layer">
    <g id="text3048" transform="matrix(1.2897979,0,0,1.2897979,-9.2735315,-9.2735328)">
      <path d="m 24.739999,20.24 c 0.413333,-0.38664 0.866666,-0.753306 1.36,-1.1 0.506665,-0.346639 1.053331,-0.653305 1.64,-0.92 0.599996,-0.266638 1.239996,-0.473305 1.92,-0.62 0.693328,-0.159971 1.439993,-0.239971 2.24,-0.24 1.053325,2.9e-5 2.026657,0.153362 2.92,0.46 0.906655,0.306695 1.686655,0.740028 2.34,1.3 0.65332,0.560027 1.166653,1.240026 1.54,2.04 0.373319,0.800025 0.559985,1.700024 0.56,2.7 -1.5e-5,1.013355 -0.153348,1.886687 -0.46,2.62 -0.293347,0.733353 -0.673347,1.380019 -1.14,1.94 -0.453346,0.546684 -0.953346,1.026684 -1.5,1.44 -0.546678,0.400016 -1.060011,0.780016 -1.54,1.14 -0.466676,0.360015 -0.873343,0.720015 -1.22,1.08 -0.333342,0.360014 -0.526675,0.760014 -0.58,1.2 l -0.36,3.06 -2.44,0 -0.24,-3.32 0,-0.22 c -5e-6,-0.559986 0.146661,-1.053319 0.44,-1.48 0.306661,-0.439984 0.68666,-0.846651 1.14,-1.22 0.466659,-0.38665 0.959992,-0.76665 1.48,-1.14 0.533324,-0.386649 1.026657,-0.806648 1.48,-1.26 0.466656,-0.466647 0.846656,-0.993314 1.14,-1.58 0.306655,-0.586646 0.459989,-1.279978 0.46,-2.08 -1.1e-5,-0.57331 -0.113345,-1.09331 -0.34,-1.56 -0.226677,-0.466642 -0.533344,-0.859975 -0.92,-1.18 -0.386676,-0.333308 -0.846676,-0.586641 -1.38,-0.76 -0.520008,-0.173307 -1.080008,-0.259974 -1.68,-0.26 -0.81334,2.6e-5 -1.513339,0.100026 -2.1,0.3 -0.573338,0.200026 -1.060004,0.420025 -1.46,0.66 -0.400003,0.240025 -0.726669,0.460025 -0.98,0.66 -0.240002,0.200024 -0.440002,0.300024 -0.6,0.3 -0.333335,2.4e-5 -0.593335,-0.153309 -0.78,-0.46 l -0.94,-1.5 m 3.92,23.9 c -4e-6,-0.346664 0.06,-0.67333 0.18,-0.98 0.133329,-0.306663 0.306662,-0.573329 0.52,-0.8 0.226662,-0.226662 0.493328,-0.406662 0.8,-0.54 0.306661,-0.133329 0.633327,-0.199995 0.98,-0.2 0.34666,5e-6 0.673326,0.06667 0.98,0.2 0.306659,0.133338 0.573325,0.313338 0.8,0.54 0.226658,0.226671 0.399991,0.493337 0.52,0.8 0.133324,0.30667 0.199991,0.633336 0.2,0.98 -9e-6,0.360002 -0.06668,0.693335 -0.2,1 -0.120009,0.293334 -0.293342,0.553334 -0.52,0.78 -0.226675,0.226667 -0.493341,0.4 -0.8,0.52 -0.306674,0.133333 -0.63334,0.2 -0.98,0.2 -0.346673,0 -0.673339,-0.06667 -0.98,-0.2 -0.306672,-0.12 -0.573338,-0.293333 -0.8,-0.52 -0.213338,-0.226666 -0.386671,-0.486666 -0.52,-0.78 -0.120004,-0.306665 -0.180004,-0.639998 -0.18,-1" id="path3053" connector-curvature="0"/>
    </g>
  </g>
</svg>
