<?xml version="1.0" encoding="UTF-8"?>
<svg xmlns="http://www.w3.org/2000/svg" xmlns:svg="http://www.w3.org/2000/svg" viewBox="0 0 64 64" version="0.48.2 r9819" width="64px" height="64px" id="svg2985">
  <defs id="defs2987"/>
  <format/>
  <type resource="http://purl.org/dc/dcmitype/StillImage"/>
  <title/>
  <g id="layer1" label="Layer 1" groupmode="layer">
    <path d="m 31.951704,17.65625 c -3.871154,3.493906 -6.3125,8.530902 -6.3125,14.15625 0,6.018483 2.773447,11.407125 7.125,14.90625 3.879863,-3.494373 6.3125,-8.554894 6.3125,-14.1875 0,-6.018483 -2.773447,-11.375875 -7.125,-14.875 z" id="path3059" connector-curvature="0"/>
  </g>
  <g groupmode="layer" id="layer4" label="nofilldashed">
    <path d="M 32.223394,46.850826 C 24.222256,53.763758 12.132012,52.881592 5.2190811,44.880452 -1.6938503,36.879314 -0.81168402,24.78907 7.1894553,17.876139 14.233732,11.789929 24.634892,11.652818 31.837155,17.551224" id="path2993" connector-curvature="0"/>
    <path d="m 32.168511,17.330992 c 8.001138,-6.912932 20.091382,-6.030766 27.004313,1.970374 6.912931,8.001138 6.030765,20.091382 -1.970375,27.004313 -7.044276,6.08621 -17.445436,6.223321 -24.647699,0.324915" id="path2993-6" connector-curvature="0"/>
  </g>
</svg>
