<?xml version="1.0" encoding="UTF-8"?>
<svg xmlns="http://www.w3.org/2000/svg" xmlns:svg="http://www.w3.org/2000/svg" viewBox="0 0 64 64" version="0.48.2 r9819" width="64" height="64" id="svg5693">
  <defs id="defs5695"/>
  <format/>
  <type resource="http://purl.org/dc/dcmitype/StillImage"/>
  <title/>
  <g id="layer1" label="Layer 1" groupmode="layer" transform="translate(0,32)">
    <g id="text5701" transform="matrix(1.9123571,0,0,1.9123571,1.4022862,-30.597712)">
      <path d="m 9.3918667,23.15881 0,3.304067 c -8.8e-6,0.458899 -0.160623,0.848962 -0.4818431,1.17019 -0.3212367,0.321229 -0.7112997,0.481843 -1.1701902,0.481843 l -5.5067778,0 c -0.4588993,0 -0.8489624,-0.160614 -1.1701903,-0.481843 -0.32122885,-0.321228 -0.48184304,-0.711291 -0.48184304,-1.17019 l 0,-3.304067 c 0,-0.458893 0.16061419,-0.848956 0.48184304,-1.17019 0.3212279,-0.321222 0.711291,-0.481837 1.1701903,-0.481843 l 5.5067778,0 c 0.4588905,6e-6 0.8489535,0.160621 1.1701902,0.481843 0.3212201,0.321234 0.4818343,0.711297 0.4818431,1.17019 m 0,-8.810844 0,3.304066 c -8.8e-6,0.458909 -0.160623,0.848972 -0.4818431,1.170191 -0.3212367,0.321237 -0.7112997,0.481852 -1.1701902,0.481843 l -5.5067778,0 C 1.7741563,19.304075 1.3840932,19.14346 1.0628653,18.822223 0.74163645,18.501004 0.58102226,18.110941 0.58102226,17.652032 l 0,-3.304066 c 0,-0.458884 0.16061419,-0.848947 0.48184304,-1.170191 0.3212279,-0.321213 0.711291,-0.481827 1.1701903,-0.481843 l 5.5067778,0 c 0.4588905,1.6e-5 0.8489535,0.16063 1.1701902,0.481843 0.3212201,0.321244 0.4818343,0.711307 0.4818431,1.170191 m 22.0271113,8.810844 0,3.304067 c -3.1e-5,0.458899 -0.160645,0.848962 -0.481843,1.17019 -0.321259,0.321229 -0.711322,0.481843 -1.170191,0.481843 l -16.520333,0 c -0.45891,0 -0.848973,-0.160614 -1.17019,-0.481843 -0.32124,-0.321228 -0.481854,-0.711291 -0.481843,-1.17019 l 0,-3.304067 c -1.1e-5,-0.458893 0.160603,-0.848956 0.481843,-1.17019 0.321217,-0.321222 0.71128,-0.481837 1.17019,-0.481843 l 16.520333,0 c 0.458869,6e-6 0.848932,0.160621 1.170191,0.481843 0.321198,0.321234 0.481812,0.711297 0.481843,1.17019 M 9.3918667,5.5371213 l 0,3.3040667 c -8.8e-6,0.4589169 -0.160623,0.84898 -0.4818431,1.17019 -0.3212367,0.321247 -0.7112997,0.481861 -1.1701902,0.481843 l -5.5067778,0 C 1.7741563,10.493239 1.3840932,10.332625 1.0628653,10.011378 0.74163645,9.690168 0.58102226,9.3001049 0.58102226,8.841188 l 0,-3.3040667 c 0,-0.4588751 0.16061419,-0.8489381 0.48184304,-1.1701903 0.3212279,-0.3212046 0.711291,-0.4818188 1.1701903,-0.481843 l 5.5067778,0 c 0.4588905,2.42e-5 0.8489535,0.1606384 1.1701902,0.481843 0.3212201,0.3212522 0.4818343,0.7113152 0.4818431,1.1701903 m 22.0271113,8.8108447 0,3.304066 c -3.1e-5,0.458909 -0.160645,0.848972 -0.481843,1.170191 -0.321259,0.321237 -0.711322,0.481852 -1.170191,0.481843 l -16.520333,0 c -0.45891,9e-6 -0.848973,-0.160606 -1.17019,-0.481843 -0.32124,-0.321219 -0.481854,-0.711282 -0.481843,-1.170191 l 0,-3.304066 c -1.1e-5,-0.458884 0.160603,-0.848947 0.481843,-1.170191 0.321217,-0.321213 0.71128,-0.481827 1.17019,-0.481843 l 16.520333,0 c 0.458869,1.6e-5 0.848932,0.16063 1.170191,0.481843 0.321198,0.321244 0.481812,0.711307 0.481843,1.170191 m 0,-8.8108447 0,3.3040667 c -3.1e-5,0.4589169 -0.160645,0.84898 -0.481843,1.17019 -0.321259,0.321247 -0.711322,0.481861 -1.170191,0.481843 l -16.520333,0 c -0.45891,1.8e-5 -0.848973,-0.160596 -1.17019,-0.481843 -0.32124,-0.32121 -0.481854,-0.7112731 -0.481843,-1.17019 l 0,-3.3040667 c -1.1e-5,-0.4588751 0.160603,-0.8489381 0.481843,-1.1701903 0.321217,-0.3212046 0.71128,-0.4818188 1.17019,-0.481843 l 16.520333,0 c 0.458869,2.42e-5 0.848932,0.1606384 1.170191,0.481843 0.321198,0.3212522 0.481812,0.7113152 0.481843,1.1701903" id="path5725" connector-curvature="0"/>
    </g>
  </g>
</svg>
