<?xml version="1.0" encoding="UTF-8"?>
<svg xmlns="http://www.w3.org/2000/svg" xmlns:svg="http://www.w3.org/2000/svg" viewBox="0 0 64 64" version="0.48.2 r9819" width="64px" height="64px" id="svg5961">
  <defs id="defs5963"/>
  <format/>
  <type resource="http://purl.org/dc/dcmitype/StillImage"/>
  <title/>
  <g id="layer1" label="Layer 1" groupmode="layer">
    <path type="arc" id="path4205-5-4" cx="479.63306" cy="420.57489" rx="29.483828" ry="4.7350903" d="m 450.15977,420.7015 a 29.483828,4.7350903 0 1 1 58.94683,-0.25167" transform="matrix(1.0094262,0,0,0.91571646,-452.36604,-352.31871)" start="3.1148502" end="6.2567711" open="true"/>
    <path type="arc" id="path4205-2-9" cx="479.63306" cy="420.57489" rx="29.483828" ry="4.7350903" d="m 450.16897,420.40165 a 29.483828,4.7350903 0 0 1 58.94545,0.23447" transform="matrix(0,1.0094262,-1.7553394,0,770.22671,-452.5018)" start="3.178188" end="6.2961162" open="true"/>
    <path type="arc" id="path4217-5" cx="511.20032" cy="419.05966" rx="30.115173" ry="30.115173" d="m 541.31549,419.05966 a 30.115173,30.115173 0 1 1 -60.23035,0 30.115173,30.115173 0 1 1 60.23035,0 z" transform="matrix(0.99377781,0,0,0.99377781,-476.01997,-384.58841)"/>
    <path transform="matrix(0,1.0094262,-1.7553394,0,769.8086,-452.5018)" d="m 509.11688,420.57489 c 0,2.61512 -13.20036,4.73509 -29.48382,4.73509 -15.89891,0 -28.93454,-2.0245 -29.46727,-4.57643" id="path4205-2-3-0"/>
    <path transform="matrix(1.0094262,0,0,0.91571646,-452.29448,-351.91402)" d="m 509.11688,420.57489 c 0,2.61512 -21.39584,5.03292 -37.6793,5.03292" id="path4205-9" connector-curvature="0" nodetypes="cc"/>
    <path connector-curvature="0" d="m 23.228472,31.85043 c 0,-16.048777 3.553685,-29.207283 8.033188,-29.7450346" id="path4205-2-3-0-9" nodetypes="cc"/>
    <path d="M 23.54546,37.804364 C 19.250644,37.984738 2.3904603,35.778619 2.1473456,33.468364" id="path4205-9-8" connector-curvature="0" nodetypes="cc"/>
  </g>
</svg>
