<?xml version="1.0" encoding="UTF-8"?>
<svg xmlns="http://www.w3.org/2000/svg" xmlns:svg="http://www.w3.org/2000/svg" viewBox="0 0 64 64" version="0.48.2 r9819" width="64px" height="64px" id="svg2985">
  <defs id="defs2987"/>
  <format/>
  <type resource="http://purl.org/dc/dcmitype/StillImage"/>
  <title/>
  <g id="layer1" label="Layer 1" groupmode="layer">
    <path d="m 44.262229,12.854305 c -4.666653,0 -8.963178,1.692864 -12.285154,4.467329 4.20508,3.512021 6.86054,8.771143 6.86054,14.678366 0,5.907223 -2.65546,11.166345 -6.86054,14.678367 3.321976,2.774465 7.618501,4.467328 12.285154,4.467328 10.573875,0 19.145695,-8.57182 19.145695,-19.145695 0,-10.573875 -8.57182,-19.145695 -19.145695,-19.145695 z" id="path2993-1" connector-curvature="0"/>
  </g>
  <g groupmode="layer" id="layer4" label="nofilldashed">
    <path transform="matrix(1.2763797,0,0,1.2763797,-10.114446,-12.673443)" d="M 33.170255,46.35034 C 26.901636,51.766386 17.429342,51.075239 12.013296,44.806619 6.5972498,38.538 7.288397,29.065706 13.557017,23.64966 19.075968,18.881322 27.224922,18.7739 32.86765,23.3951" id="path2993"/>
  </g>
</svg>
