<?xml version="1.0" encoding="UTF-8"?>
<svg xmlns="http://www.w3.org/2000/svg" xmlns:svg="http://www.w3.org/2000/svg" viewBox="0 0 64 64" version="0.48.2 r9819" width="64px" height="64px" id="svg5103">
  <defs id="defs5105"/>
  <format/>
  <type resource="http://purl.org/dc/dcmitype/StillImage"/>
  <g id="layer1" label="Layer 1" groupmode="layer">
    <g id="text3029">
      <path d="m 19.83512,19.894424 c 0.940521,-0.940498 1.410789,-2.066666 1.410805,-3.378506 -1.6e-5,-1.31176 -0.470284,-2.425552 -1.410805,-3.341381 -0.9158,-0.940492 -2.029592,-1.410759 -3.34138,-1.410805 -1.311812,4.6e-5 -2.437979,0.470313 -3.378507,1.410805 -0.915793,0.915829 -1.373685,2.029621 -1.373678,3.341381 -7e-6,1.31184 0.457885,2.438008 1.373678,3.378506 0.940528,0.915822 2.066695,1.373715 3.378507,1.373679 1.311788,3.6e-5 2.42558,-0.457857 3.34138,-1.373679 m 41.024725,18.006327 c -5.6e-5,1.311819 -0.457949,2.425612 -1.373679,3.341381 L 41.257081,59.508344 c -0.965324,0.915782 -2.091491,1.373674 -3.378507,1.373678 -1.311833,-4e-6 -2.425626,-0.457896 -3.34138,-1.373678 L 7.9917837,32.925807 C 7.0512446,32.010047 6.246839,30.760124 5.5785646,29.176036 4.9350392,27.592004 4.613277,26.144074 4.613277,24.832242 l 0,-15.4446023 c 0,-1.2870013 0.4702678,-2.4007937 1.410805,-3.3413802 0.9405343,-0.9404849 2.0543266,-1.4107528 3.3413802,-1.410805 l 15.4446018,0 c 1.31178,5.22e-5 2.75971,0.3341899 4.343795,1.002414 1.584035,0.6435757 2.846333,1.4356058 3.786897,2.3760927 l 26.54541,26.5082838 c 0.91573,0.965309 1.373623,2.091477 1.373679,3.378506" id="path5742"/>
    </g>
  </g>
</svg>
