<?xml version="1.0" encoding="UTF-8" standalone="no"?>
<!-- Created with Inkscape (http://www.inkscape.org/) -->

<svg
   xmlns:dc="http://purl.org/dc/elements/1.1/"
   xmlns:cc="http://creativecommons.org/ns#"
   xmlns:rdf="http://www.w3.org/1999/02/22-rdf-syntax-ns#"
   xmlns:svg="http://www.w3.org/2000/svg"
   xmlns="http://www.w3.org/2000/svg"
   xmlns:sodipodi="http://sodipodi.sourceforge.net/DTD/sodipodi-0.dtd"
   xmlns:inkscape="http://www.inkscape.org/namespaces/inkscape"
   width="64"
   height="64"
   id="svg4525"
   version="1.1"
   inkscape:version="0.48.2 r9819"
   sodipodi:docname="cog.svg">
  <defs
     id="defs4527" />
  <sodipodi:namedview
     id="base"
     pagecolor="#ffffff"
     bordercolor="#666666"
     borderopacity="1.0"
     inkscape:pageopacity="0.0"
     inkscape:pageshadow="2"
     inkscape:zoom="3.8890873"
     inkscape:cx="42.447534"
     inkscape:cy="32"
     inkscape:current-layer="layer1"
     showgrid="true"
     inkscape:document-units="px"
     inkscape:grid-bbox="true"
     inkscape:window-width="1130"
     inkscape:window-height="643"
     inkscape:window-x="1657"
     inkscape:window-y="184"
     inkscape:window-maximized="0" />
  <metadata
     id="metadata4530">
    <rdf:RDF>
      <cc:Work
         rdf:about="">
        <dc:format>image/svg+xml</dc:format>
        <dc:type
           rdf:resource="http://purl.org/dc/dcmitype/StillImage" />
        <dc:title />
      </cc:Work>
    </rdf:RDF>
  </metadata>
  <g
     id="layer1"
     inkscape:label="Layer 1"
     inkscape:groupmode="layer">
    <g
       style="font-size:55.3952446px;font-style:normal;font-weight:normal;line-height:125%;letter-spacing:0px;word-spacing:0px;fill:#cccccc;fill-opacity:0.62745098;stroke:#5d5d5d;stroke-width:1.09093082;stroke-opacity:1;font-family:Bitstream Vera Sans"
       id="text3029"
       transform="matrix(1.0246691,0,0,1.0246691,-0.7894112,-0.78941258)">
      <path
         d="m 27.703159,37.57971 c 1.545599,-1.545611 2.318412,-3.410665 2.318439,-5.595167 -2.7e-5,-2.184464 -0.77284,-4.049517 -2.318439,-5.595167 -1.54565,-1.5456 -3.410704,-2.318412 -5.595167,-2.31844 -2.184503,2.8e-5 -4.049557,0.77284 -5.595167,2.31844 -1.545639,1.54565 -2.318451,3.410703 -2.318439,5.595167 -1.2e-5,2.184502 0.7728,4.049556 2.318439,5.595167 1.54561,1.545638 3.410664,2.318451 5.595167,2.318439 2.184463,1.2e-5 4.049517,-0.772801 5.595167,-2.318439 m 26.059258,10.232045 c -5.1e-5,-1.071629 -0.391609,-1.999004 -1.174675,-2.782127 -0.783167,-0.78311 -1.710542,-1.174668 -2.782128,-1.174676 -1.07168,8e-6 -1.999055,0.391566 -2.782127,1.174676 -0.783161,0.783123 -1.174719,1.710498 -1.174676,2.782127 -4.3e-5,1.092246 0.381211,2.029925 1.143764,2.81304 0.783071,0.762509 1.72075,1.143764 2.813039,1.143764 1.092194,0 2.019569,-0.381255 2.782128,-1.143764 0.783066,-0.783115 1.174624,-1.720794 1.174675,-2.81304 m 0,-31.654425 c -5.1e-5,-1.071598 -0.391609,-1.998973 -1.174675,-2.782127 -0.783167,-0.783079 -1.710542,-1.174637 -2.782128,-1.174676 -1.07168,3.9e-5 -1.999055,0.391597 -2.782127,1.174676 -0.783161,0.783154 -1.174719,1.710529 -1.174676,2.782127 -4.3e-5,1.092277 0.381211,2.029956 1.143764,2.81304 0.783071,0.762541 1.72075,1.143795 2.813039,1.143763 1.092194,3.2e-5 2.019569,-0.381222 2.782128,-1.143763 0.783066,-0.783084 1.174624,-1.720763 1.174675,-2.81304 m -11.870409,13.014173 0,5.718817 c -4e-5,0.2061 -0.07217,0.412183 -0.216388,0.61825 -0.144297,0.185492 -0.309164,0.288533 -0.4946,0.309126 l -4.791442,0.7419 c -0.226725,0.721307 -0.556458,1.504424 -0.9892,2.349352 0.70065,0.989213 1.628025,2.174192 2.782127,3.554941 0.144222,0.206092 0.216352,0.412175 0.216388,0.61825 -3.6e-5,0.247309 -0.07217,0.443088 -0.216388,0.587338 -0.474028,0.618258 -1.329273,1.545633 -2.56574,2.782127 -1.215924,1.215897 -2.019649,1.823843 -2.411177,1.823839 -0.226722,4e-6 -0.44311,-0.07212 -0.649163,-0.216387 l -3.55494,-2.782128 c -0.762535,0.391565 -1.555956,0.710994 -2.380264,0.958289 -0.226716,2.225705 -0.463712,3.82285 -0.710988,4.791441 -0.144282,0.494601 -0.453407,0.741901 -0.927376,0.741901 l -5.74973,0 c -0.226708,0 -0.432792,-0.07213 -0.61825,-0.216388 -0.185492,-0.164867 -0.288533,-0.350342 -0.309126,-0.556426 l -0.710988,-4.729616 c -0.700698,-0.206078 -1.47351,-0.525507 -2.318439,-0.958288 l -3.647678,2.751215 c -0.144268,0.144262 -0.350351,0.216391 -0.61825,0.216387 -0.226701,4e-6 -0.443088,-0.08243 -0.649163,-0.2473 -2.9676079,-2.740904 -4.4514077,-4.38957 -4.4514041,-4.946004 -3.6e-6,-0.185466 0.072126,-0.381245 0.2163877,-0.587338 C 6.3322961,42.206294 6.7547668,41.660173 7.3936301,40.856437 8.0324833,40.052723 8.516779,39.424169 8.8465188,38.970773 8.3725207,38.06402 8.0118749,37.219078 7.7645804,36.435946 l -4.6987038,-0.7419 C 2.8597926,35.673453 2.6846218,35.580716 2.5403637,35.415833 2.3961052,35.230374 2.323976,35.024291 2.323976,34.797582 l 0,-5.718817 c 0,-0.20606 0.072129,-0.401839 0.2163877,-0.587338 0.1442581,-0.20606 0.3091247,-0.319406 0.4946004,-0.340038 l 4.7914414,-0.7419 C 8.0530916,26.688222 8.3828249,25.905105 8.8156063,25.060137 8.1149166,24.070964 7.1875418,22.885985 6.033479,21.505197 5.889217,21.278535 5.8170879,21.072452 5.8170914,20.886946 c -3.5e-6,-0.247269 0.072126,-0.453352 0.2163876,-0.61825 0.4533796,-0.618219 1.2983211,-1.535289 2.5348271,-2.751215 1.2364935,-1.215857 2.0505229,-1.823803 2.4420899,-1.823839 0.226682,3.6e-5 0.44307,0.07217 0.649163,0.216388 l 3.55494,2.782127 c 0.70067,-0.370917 1.494091,-0.70065 2.380264,-0.989201 0.226677,-2.225665 0.463672,-3.812507 0.710988,-4.760529 0.144243,-0.494561 0.453368,-0.741861 0.927376,-0.7419 l 5.74973,0 c 0.226669,3.9e-5 0.432752,0.08247 0.61825,0.2473 0.185452,0.144297 0.288494,0.319468 0.309126,0.525513 l 0.710988,4.729616 c 0.700659,0.206117 1.473471,0.525547 2.318439,0.958288 l 3.647678,-2.751214 c 0.164836,-0.144223 0.37092,-0.216352 0.61825,-0.216388 0.226661,3.6e-5 0.443049,0.08247 0.649163,0.2473 2.967568,2.740944 4.451368,4.38961 4.451404,4.946004 -3.6e-5,0.185506 -0.07216,0.381285 -0.216388,0.587338 -0.247335,0.329764 -0.68011,0.886189 -1.298326,1.669276 -0.618284,0.783146 -1.081971,1.401395 -1.391063,1.854752 0.473958,0.989227 0.8243,1.834168 1.051026,2.534827 l 4.698703,0.710988 c 0.206045,0.04124 0.381216,0.154586 0.525513,0.340038 0.144219,0.16489 0.216348,0.360669 0.216388,0.587338 m 19.784016,16.476376 0,4.327753 c -6e-5,0.329735 -1.53538,0.649164 -4.605966,0.958288 -0.247355,0.556426 -0.55648,1.092243 -0.927376,1.607452 1.050971,2.32874 1.576483,3.750715 1.576539,4.265928 -5.6e-5,0.08243 -0.04127,0.154557 -0.12365,0.216388 -2.514272,1.463186 -3.791988,2.194782 -3.833154,2.194789 -0.164918,-7e-6 -0.638909,-0.484303 -1.421976,-1.452889 -0.783166,-0.968597 -1.318983,-1.66928 -1.607451,-2.102051 -0.412215,0.04121 -0.72134,0.06182 -0.927376,0.06182 -0.206131,-4e-6 -0.515255,-0.02061 -0.927375,-0.06182 -0.288564,0.432771 -0.82438,1.133454 -1.607452,2.102051 -0.783161,0.968586 -1.257153,1.452882 -1.421976,1.452889 -0.04126,-7e-6 -1.318977,-0.731603 -3.833153,-2.194789 -0.08247,-0.06183 -0.12369,-0.13396 -0.12365,-0.216388 -4e-5,-0.515213 0.525473,-1.937188 1.576539,-4.265928 -0.370991,-0.515209 -0.680116,-1.051026 -0.927376,-1.607452 -3.070681,-0.309124 -4.606002,-0.628553 -4.605966,-0.958288 l 0,-4.327753 c -3.6e-5,-0.329728 1.535285,-0.649157 4.605966,-0.958289 0.267868,-0.597634 0.576993,-1.133451 0.927376,-1.607451 -1.051066,-2.328733 -1.576579,-3.750707 -1.576539,-4.265928 -4e-5,-0.08242 0.04118,-0.15455 0.12365,-0.216388 0.08239,-0.0412 0.443039,-0.247287 1.081938,-0.618251 0.638818,-0.370936 1.246764,-0.721277 1.823839,-1.051025 0.576991,-0.329719 0.886116,-0.494586 0.927376,-0.494601 0.164823,1.5e-5 0.638815,0.484311 1.421976,1.452889 0.783072,0.947997 1.318888,1.638376 1.607452,2.071139 0.41212,-0.04121 0.721244,-0.06181 0.927375,-0.06183 0.206036,1.2e-5 0.515161,0.02062 0.927376,0.06183 1.050976,-1.46318 1.99896,-2.617246 2.843952,-3.462203 l 0.185475,-0.06182 c 0.08238,1.5e-5 1.360099,0.721307 3.833154,2.163877 0.08238,0.06184 0.123594,0.133967 0.12365,0.216388 -5.6e-5,0.515221 -0.525568,1.937195 -1.576539,4.265928 0.350288,0.474 0.659413,1.009817 0.927376,1.607451 3.070586,0.309132 4.605906,0.628561 4.605966,0.958289 m 0,-31.654426 0,4.327754 c -6e-5,0.329766 -1.53538,0.649195 -4.605966,0.958288 -0.247355,0.556457 -0.55648,1.092274 -0.927376,1.607451 1.050971,2.328772 1.576483,3.750747 1.576539,4.265929 -5.6e-5,0.08246 -0.04127,0.154589 -0.12365,0.216387 -2.514272,1.463218 -3.791988,2.194814 -3.833154,2.19479 -0.164918,2.4e-5 -0.638909,-0.484272 -1.421976,-1.452889 -0.783166,-0.968566 -1.318983,-1.669249 -1.607451,-2.102052 -0.412215,0.04124 -0.72134,0.06185 -0.927376,0.06182 -0.206131,2.8e-5 -0.515255,-0.02058 -0.927375,-0.06182 -0.288564,0.432803 -0.82438,1.133486 -1.607452,2.102052 -0.783161,0.968617 -1.257153,1.452913 -1.421976,1.452889 -0.04126,2.4e-5 -1.318977,-0.731572 -3.833153,-2.19479 -0.08247,-0.0618 -0.12369,-0.133927 -0.12365,-0.216387 -4e-5,-0.515182 0.525473,-1.937157 1.576539,-4.265929 C 43.097556,20.371774 42.788431,19.835957 42.541171,19.2795 39.47049,18.970407 37.935169,18.650978 37.935205,18.321212 l 0,-4.327754 c -3.6e-5,-0.329695 1.535285,-0.649125 4.605966,-0.958288 0.267868,-0.597603 0.576993,-1.13342 0.927376,-1.607451 -1.051066,-2.3287013 -1.576579,-3.7506761 -1.576539,-4.2659289 -4e-5,-0.082389 0.04118,-0.1545179 0.12365,-0.2163877 0.08239,-0.041172 0.443039,-0.2472551 1.081938,-0.6182505 0.638818,-0.3709045 1.246764,-0.7212461 1.823839,-1.0510258 0.576991,-0.3296868 0.886116,-0.4945534 0.927376,-0.4946004 0.164823,4.7e-5 0.638815,0.4843427 1.421976,1.4528886 0.783072,0.9480287 1.318888,1.6384078 1.607452,2.0711392 0.41212,-0.041173 0.721244,-0.061782 0.927375,-0.061825 0.206036,4.35e-5 0.515161,0.020652 0.927376,0.061825 1.050976,-1.4631479 1.99896,-2.6172143 2.843952,-3.4622028 l 0.185475,-0.061825 c 0.08238,4.7e-5 1.360099,0.7213385 3.833154,2.1638767 0.08238,0.06187 0.123594,0.133999 0.12365,0.2163877 -5.6e-5,0.5152528 -0.525568,1.9372276 -1.576539,4.2659289 0.350288,0.474031 0.659413,1.009848 0.927376,1.607451 3.070586,0.309163 4.605906,0.628593 4.605966,0.958288"
         style="stroke-width:1.09099996;stroke-miterlimit:4;stroke-dasharray:none"
         id="path4593"
         inkscape:connector-curvature="0" />
    </g>
  </g>
</svg>
