<?xml version="1.0" encoding="UTF-8" standalone="no"?>
<!-- Created with Inkscape (http://www.inkscape.org/) -->

<svg
   xmlns:dc="http://purl.org/dc/elements/1.1/"
   xmlns:cc="http://creativecommons.org/ns#"
   xmlns:rdf="http://www.w3.org/1999/02/22-rdf-syntax-ns#"
   xmlns:svg="http://www.w3.org/2000/svg"
   xmlns="http://www.w3.org/2000/svg"
   xmlns:sodipodi="http://sodipodi.sourceforge.net/DTD/sodipodi-0.dtd"
   xmlns:inkscape="http://www.inkscape.org/namespaces/inkscape"
   width="64px"
   height="64px"
   id="svg5961"
   version="1.1"
   inkscape:version="0.48.2 r9819"
   sodipodi:docname="stl.svg">
  <defs
     id="defs5963" />
  <sodipodi:namedview
     id="base"
     pagecolor="#ffffff"
     bordercolor="#666666"
     borderopacity="1.0"
     inkscape:pageopacity="0.0"
     inkscape:pageshadow="2"
     inkscape:zoom="7.7781746"
     inkscape:cx="25.947989"
     inkscape:cy="27.989309"
     inkscape:current-layer="layer1"
     showgrid="true"
     inkscape:document-units="px"
     inkscape:grid-bbox="true"
     inkscape:window-width="1164"
     inkscape:window-height="947"
     inkscape:window-x="380"
     inkscape:window-y="26"
     inkscape:window-maximized="0" />
  <metadata
     id="metadata5966">
    <rdf:RDF>
      <cc:Work
         rdf:about="">
        <dc:format>image/svg+xml</dc:format>
        <dc:type
           rdf:resource="http://purl.org/dc/dcmitype/StillImage" />
        <dc:title></dc:title>
      </cc:Work>
    </rdf:RDF>
  </metadata>
  <g
     id="layer1"
     inkscape:label="Layer 1"
     inkscape:groupmode="layer">
    <g
       style="font-size:33.85696793px;font-style:normal;font-variant:normal;font-weight:normal;font-stretch:normal;line-height:125%;letter-spacing:0px;word-spacing:0px;fill:#000000;fill-opacity:1;stroke:none;font-family:Lato;-inkscape-font-specification:Lato"
       id="text2992">
      <path
         d="m 19.572112,23.66272 c -0.101586,0.169305 -0.2088,0.29909 -0.321641,0.389355 -0.112872,0.07902 -0.259585,0.11852 -0.440141,0.1185 -0.191871,2e-5 -0.417583,-0.09591 -0.677139,-0.287785 C 17.884893,23.690955 17.563252,23.48217 17.168267,23.256436 16.784542,23.019459 16.316188,22.805032 15.763203,22.613154 15.22148,22.42132 14.56127,22.325392 13.78257,22.32537 c -0.733576,2.2e-5 -1.382501,0.101592 -1.946775,0.304713 -0.56429,0.191877 -1.038287,0.45709 -1.421993,0.795638 -0.372432,0.33859 -0.6545736,0.739231 -0.8464242,1.201923 -0.1918613,0.451445 -0.2877893,0.942371 -0.2877842,1.472778 -5.1e-6,0.677156 0.1636367,1.241439 0.490926,1.692848 0.3385634,0.440157 0.7787044,0.818226 1.3204214,1.134209 0.55299,0.316013 1.173701,0.592511 1.862134,0.829495 0.699701,0.225728 1.410696,0.462726 2.132989,0.710997 0.733556,0.248297 1.444551,0.530439 2.132989,0.846424 0.699696,0.304725 1.320407,0.69408 1.862133,1.168065 0.552981,0.474009 0.993122,1.05522 1.320422,1.743634 0.338553,0.688434 0.507837,1.534858 0.507854,2.539273 -1.7e-5,1.060858 -0.180587,2.059637 -0.541711,2.996341 -0.361157,0.925428 -0.891583,1.732351 -1.591278,2.420774 -0.688439,0.688426 -1.540505,1.230137 -2.556201,1.625134 -1.004434,0.394998 -2.149927,0.592497 -3.436482,0.592497 -1.568713,0 -3.0019903,-0.282141 -4.2998352,-0.846424 C 7.197387,42.978121 6.0970367,42.205055 5.1829004,41.234486 l 0.9479951,-1.55742 c 0.090283,-0.124138 0.1974969,-0.225709 0.3216412,-0.304713 0.1354255,-0.09028 0.2821389,-0.135423 0.4401406,-0.135428 0.2369959,5e-6 0.5078513,0.12979 0.8125673,0.389355 0.3047089,0.248289 0.682778,0.524787 1.1342084,0.829496 0.4627068,0.304716 1.0157034,0.586857 1.658991,0.846424 0.654562,0.248287 1.450199,0.372429 2.386917,0.372427 0.7787,2e-6 1.472768,-0.107211 2.082203,-0.321641 0.609414,-0.214425 1.122911,-0.513494 1.540492,-0.89721 0.428842,-0.394994 0.756126,-0.863348 0.981852,-1.405064 0.2257,-0.541706 0.338556,-1.145488 0.33857,-1.811348 -1.4e-5,-0.73356 -0.169298,-1.331699 -0.507855,-1.794419 C 16.993327,34.970957 16.558829,34.575959 16.01713,34.259951 15.475407,33.943963 14.854697,33.67875 14.154997,33.464312 13.466563,33.23861 12.755567,33.012897 12.022008,32.787173 11.299719,32.550186 10.588723,32.27933 9.889019,31.974606 9.200589,31.669905 8.5855213,31.274908 8.0438142,30.789612 7.5020994,30.304342 7.0619593,29.70056 6.7233925,28.978264 6.3961063,28.244712 6.2324644,27.341861 6.2324664,26.269707 c -2e-6,-0.857692 0.1636399,-1.687186 0.4909261,-2.488488 0.3385668,-0.80126 0.8238495,-1.512256 1.4558496,-2.132989 0.6319921,-0.620687 1.4107016,-1.117256 2.3361309,-1.489706 0.936702,-0.372402 2.008838,-0.558616 3.216412,-0.55864 1.354268,2.4e-5 2.590046,0.214452 3.707338,0.643282 1.117265,0.428879 2.093474,1.049589 2.928628,1.862134 l -0.795639,1.55742"
         style=""
         id="path3016" />
      <path
         d="m 41.589192,19.87074 0,2.759343 -7.837888,0 0,21.499174 -3.284126,0 0,-21.499174 -7.871745,0 0,-2.759343 18.993759,0"
         style=""
         id="path3018" />
      <path
         d="m 48.321439,41.369914 10.49566,0 0,2.759343 -13.779785,0 0,-24.258517 3.284125,0 0,21.499174"
         style=""
         id="path3020" />
    </g>
  </g>
</svg>
